<?xml version="1.0" encoding="UTF-8" standalone="no"?> <!-- Created with Vectornator for iOS (http://vectornator.io/) --><!DOCTYPE svg PUBLIC "-//W3C//DTD SVG 1.1//EN" "http://www.w3.org/Graphics/SVG/1.1/DTD/svg11.dtd">
<svg height="100%" style="fill-rule:nonzero;clip-rule:evenodd;stroke-linecap:round;stroke-linejoin:round;" xmlns:xlink="http://www.w3.org/1999/xlink" xmlns="http://www.w3.org/2000/svg" xml:space="preserve" width="100%" xmlns:vectornator="http://vectornator.io" version="1.1" viewBox="0 0 100 100">
<metadata>
<vectornator:setting key="DimensionsVisible" value="1"/>
<vectornator:setting key="PencilOnly" value="0"/>
<vectornator:setting key="SnapToPoints" value="0"/>
<vectornator:setting key="OutlineMode" value="0"/>
<vectornator:setting key="CMYKEnabledKey" value="0"/>
<vectornator:setting key="RulersVisible" value="1"/>
<vectornator:setting key="SnapToEdges" value="0"/>
<vectornator:setting key="GuidesVisible" value="1"/>
<vectornator:setting key="DisplayWhiteBackground" value="0"/>
<vectornator:setting key="doHistoryDisabled" value="0"/>
<vectornator:setting key="SnapToGuides" value="1"/>
<vectornator:setting key="TimeLapseWatermarkDisabled" value="0"/>
<vectornator:setting key="Units" value="Pixels"/>
<vectornator:setting key="DynamicGuides" value="0"/>
<vectornator:setting key="IsolateActiveLayer" value="0"/>
<vectornator:setting key="SnapToGrid" value="0"/>
</metadata>
<defs/>
<g id="Ebene 1" vectornator:layerName="Ebene 1">
<path stroke="#000000" stroke-width="2.49879" d="M49.0575+60.1581C55.0843+60.1581+62.3165+61.3886+62.3165+61.3886C62.3165+61.3886+61.1112+47.8533+49.0575+47.8533C37.0038+47.8533+35.7984+61.3886+35.7984+61.3886C35.7984+61.3886+43.0306+60.1581+49.0575+60.1581Z" fill="none" stroke-linecap="round" opacity="1" stroke-linejoin="round"/>
<path stroke="#000000" stroke-width="2.49879" d="M74.7451+57.056C75.2875+54.9002+75.5756+52.6423+75.5756+50.3142C75.5756+35.3627+63.7039+23.2436+49.0575+23.2436L49.0575+23.2436C34.411+23.2436+22.5394+35.3627+22.5394+50.3142C22.5394+65.2658+34.411+77.3848+49.0575+77.3848C57.624+77.3848+65.242+73.2381+70.09+66.8051" fill="none" stroke-linecap="round" opacity="1" stroke-linejoin="round"/>
<path stroke="#000000" stroke-width="2.49879" d="M53.8789+39.2399C53.8789+39.2399+56.4392+36.7789+59.9058+36.7789C63.3712+36.7789+65.9314+39.2399+65.9314+39.2399M44.236+39.2399C44.236+39.2399+41.6758+36.7789+38.2092+36.7789C34.7425+36.7789+32.1823+39.2399+32.1823+39.2399M76.781+63.8495C76.781+65.8872+75.1609+67.541+73.1649+67.541C71.1688+67.541+69.5487+65.8872+69.5487+63.8495C69.5487+57.0843+68.3434+52.7752+68.3434+52.7752C68.3434+52.7752+76.781+55.2362+76.781+63.8495ZM27.3608+53.3904C27.3608+55.0897+28.7096+56.4666+30.3743+56.4666C32.0389+56.4666+33.3877+55.0897+33.3877+53.3904C33.3877+48.3762+34.593+44.1618+34.593+44.1618C34.593+44.1618+27.3608+46.6228+27.3608+53.3904Z" fill="none" stroke-linecap="round" opacity="1" stroke-linejoin="round"/>
<path stroke="#000000" stroke-width="2.49879" d="M27.3608+53.3904C27.3608+55.0897+28.7096+56.4666+30.3743+56.4666C32.0389+56.4666+33.3877+55.0897+33.3877+53.3904C33.3877+48.3762+34.593+44.1618+34.593+44.1618C34.593+44.1618+27.3608+46.6228+27.3608+53.3904Z" fill="none" stroke-linecap="round" opacity="1" stroke-linejoin="round"/>
</g>
</svg>
