<?xml version="1.0" encoding="UTF-8" standalone="no"?> <!-- Created with Vectornator for iOS (http://vectornator.io/) --><!DOCTYPE svg PUBLIC "-//W3C//DTD SVG 1.1//EN" "http://www.w3.org/Graphics/SVG/1.1/DTD/svg11.dtd">
<svg height="100%" style="fill-rule:nonzero;clip-rule:evenodd;stroke-linecap:round;stroke-linejoin:round;" xmlns:xlink="http://www.w3.org/1999/xlink" xmlns="http://www.w3.org/2000/svg" xml:space="preserve" width="100%" xmlns:vectornator="http://vectornator.io" version="1.1" viewBox="0 0 100 100">
<metadata>
<vectornator:setting key="DimensionsVisible" value="1"/>
<vectornator:setting key="PencilOnly" value="0"/>
<vectornator:setting key="SnapToPoints" value="0"/>
<vectornator:setting key="OutlineMode" value="0"/>
<vectornator:setting key="CMYKEnabledKey" value="0"/>
<vectornator:setting key="RulersVisible" value="1"/>
<vectornator:setting key="SnapToEdges" value="0"/>
<vectornator:setting key="GuidesVisible" value="1"/>
<vectornator:setting key="DisplayWhiteBackground" value="0"/>
<vectornator:setting key="doHistoryDisabled" value="0"/>
<vectornator:setting key="SnapToGuides" value="1"/>
<vectornator:setting key="TimeLapseWatermarkDisabled" value="0"/>
<vectornator:setting key="Units" value="Pixels"/>
<vectornator:setting key="DynamicGuides" value="0"/>
<vectornator:setting key="IsolateActiveLayer" value="0"/>
<vectornator:setting key="SnapToGrid" value="0"/>
</metadata>
<defs/>
<g id="Ebene 1" vectornator:layerName="Ebene 1">
<path d="M37.0146+46.2418L48.4849+46.2418C54.0288+46.2418+58.5213+41.6592+58.5213+36.0041C58.5213+30.349+54.0288+25.7664+48.4849+25.7664C46.0474+25.7664+43.7056+26.6439+41.8895+28.3014C41.3159+28.8377+41.2204+29.764+41.7461+30.349C42.2718+30.934+43.1799+31.0315+43.7534+30.4952C45.0438+29.3252+46.7165+28.6914+48.4849+28.6914C52.4517+28.6914+55.6538+31.9578+55.6538+36.0041C55.6538+40.0504+52.4517+43.3168+48.4849+43.3168L37.0146+43.3168C36.2021+43.3168+35.5808+43.9505+35.5808+44.7793C35.5808+45.6081+36.2021+46.2418+37.0146+46.2418ZM34.147+55.017L21.7209+55.017C20.9084+55.017+20.2871+55.6508+20.2871+56.4796C20.2871+57.3083+20.9084+57.9421+21.7209+57.9421L34.147+57.9421C34.9595+57.9421+35.5808+57.3083+35.5808+56.4796C35.5808+55.6508+34.9595+55.017+34.147+55.017ZM58.0434+55.017L45.6173+55.017C44.8048+55.017+44.1835+55.6508+44.1835+56.4796C44.1835+57.3083+44.8048+57.9421+45.6173+57.9421L58.0434+57.9421C62.0102+57.9421+65.2123+61.2084+65.2123+65.2548C65.2123+69.3011+62.0102+72.5674+58.0434+72.5674C56.3707+72.5674+54.7457+71.9824+53.4553+70.9099C52.834+70.3736+51.9259+70.4711+51.448+71.1049C50.9701+71.7387+51.0179+72.6649+51.6392+73.1525C53.4553+74.6637+55.7016+75.4925+58.0434+75.4925C63.5874+75.4925+68.0799+70.9099+68.0799+65.2548C68.0799+59.5996+63.5874+55.017+58.0434+55.017Z" opacity="1" fill="#000000"/>
<path d="M70.4695+31.6165C69.657+31.6165+69.0357+32.2503+69.0357+33.079C69.0357+33.9078+69.657+34.5416+70.4695+34.5416C74.4363+34.5416+77.6384+37.8079+77.6384+41.8542C77.6384+45.9006+74.4363+49.1669+70.4695+49.1669L26.5002+49.1669C25.6877+49.1669+25.0664+49.8007+25.0664+50.6294C25.0664+51.4582+25.6877+52.092+26.5002+52.092L70.4695+52.092C76.0135+52.092+80.506+47.5094+80.506+41.8542C80.506+36.1991+76.0135+31.6165+70.4695+31.6165ZM31.2795+43.3168C30.4876+43.3168+29.8457+43.9716+29.8457+44.7793C29.8457+45.587+30.4876+46.2418+31.2795+46.2418C32.0713+46.2418+32.7132+45.587+32.7132+44.7793C32.7132+43.9716+32.0713+43.3168+31.2795+43.3168Z" opacity="1" fill="#000000"/>
</g>
</svg>
