<?xml version="1.0" encoding="UTF-8" standalone="no"?> <!-- Created with Vectornator for iOS (http://vectornator.io/) --><!DOCTYPE svg PUBLIC "-//W3C//DTD SVG 1.1//EN" "http://www.w3.org/Graphics/SVG/1.1/DTD/svg11.dtd">
<svg height="100%" style="fill-rule:nonzero;clip-rule:evenodd;stroke-linecap:round;stroke-linejoin:round;" xmlns:xlink="http://www.w3.org/1999/xlink" xmlns="http://www.w3.org/2000/svg" xml:space="preserve" width="100%" xmlns:vectornator="http://vectornator.io" version="1.1" viewBox="0 0 100 100">
<metadata>
<vectornator:setting key="DimensionsVisible" value="1"/>
<vectornator:setting key="PencilOnly" value="0"/>
<vectornator:setting key="SnapToPoints" value="0"/>
<vectornator:setting key="OutlineMode" value="0"/>
<vectornator:setting key="CMYKEnabledKey" value="0"/>
<vectornator:setting key="RulersVisible" value="1"/>
<vectornator:setting key="SnapToEdges" value="0"/>
<vectornator:setting key="GuidesVisible" value="1"/>
<vectornator:setting key="DisplayWhiteBackground" value="0"/>
<vectornator:setting key="doHistoryDisabled" value="0"/>
<vectornator:setting key="SnapToGuides" value="1"/>
<vectornator:setting key="TimeLapseWatermarkDisabled" value="0"/>
<vectornator:setting key="Units" value="Pixels"/>
<vectornator:setting key="DynamicGuides" value="0"/>
<vectornator:setting key="IsolateActiveLayer" value="0"/>
<vectornator:setting key="SnapToGrid" value="0"/>
</metadata>
<defs/>
<g id="Ebene 1" vectornator:layerName="Ebene 1">
<path d="M40.0302+57.1452C39.6373+56.8017+39.2877+56.4219+38.9742+56.0205L37.7553+62.5033L31.3763+69.9033C30.8525+70.5108+30.5879+71.2435+30.5697+71.9763C30.5461+72.9689+30.9723+73.963+31.8221+74.6472C32.4741+75.1725+33.264+75.4271+34.0511+75.4271C35.0485+75.4271+36.039+75.0136+36.7286+74.2162L43.694+66.1346C44.0771+65.6874+44.3376+65.154+44.4449+64.5816L45.023+61.5079L40.0302+57.1452ZM51.4646+18.8573C48.3864+18.8563+45.8904+21.2127+45.8904+24.1198C45.8904+27.0269+48.3864+29.3832+51.4646+29.3822C54.5429+29.3832+57.0389+27.0269+57.0389+24.1198C57.0389+21.2127+54.5429+18.8563+51.4646+18.8573Z" opacity="1" fill="#000000"/>
<path d="M56.9353+60.4681C56.8071+59.9764+56.5661+59.5185+56.2318+59.1292L50.3975+52.3622L52.9524+42.6212L52.9594+42.6293L53.9819+38.738C54.691+35.9849+53.8357+34.4979+53.3328+33.8985C53.1865+33.7584+53.0528+33.6022+52.8925+33.481L52.8675+33.4621C51.8979+32.7307+50.7026+32.3266+49.4474+32.3266L45.8937+32.3266C45.4089+32.3266+44.9325+32.4492+44.5117+32.6822L34.7601+38.07C34.2823+38.3326+33.8964+38.7273+33.6499+39.2041L29.4706+47.2857C28.7824+48.6164+29.3396+50.2341+30.7174+50.9008C31.1172+51.0948+31.5435+51.185+31.9614+51.185C32.984+51.185+33.9675+50.6409+34.4565+49.6967L38.2582+42.3451L42.8261+40.6049L41.3369+46.1004C41.3369+46.1004+40.5038+48.8723+40.3408+51.0665C40.2266+52.6195+40.6877+54.089+41.9011+55.149L45.6123+58.3911L50.2234+62.4198L52.965+72.8787C53.3578+74.4061+54.7788+75.4284+56.339+75.4284C56.6191+75.4284+56.9032+75.3961+57.186+75.3274C58.5805+74.9907+59.5668+73.8835+59.7814+72.5931C59.8538+72.1567+59.8385+71.6988+59.7215+71.2435L56.9353+60.4681Z" opacity="1" fill="#000000"/>
<path d="M66.3707+44.6174L59.8329+42.2603L56.8796+38.3892C56.8252+38.7138+56.7765+39.037+56.6859+39.3873L55.1438+45.2599L55.8417+46.1017C56.1621+46.5233+56.6037+46.8452+57.1094+47.0284L64.4231+49.6657C65.8622+50.1856+67.4712+49.4771+68.0075+48.083C68.5439+46.6903+67.8111+45.1373+66.3707+44.6174Z" opacity="1" fill="#000000"/>
<path d="M65.0736+47.2629C64.0766+47.2629+63.2564+48.0996+63.2564+49.1411C63.2564+49.4314+63.4654+49.6534+63.7388+49.6534C64.0122+49.6534+64.2213+49.4314+64.2213+49.1411C64.2213+48.663+64.6073+48.2874+65.0736+48.2874L66.5853+48.2874C67.0517+48.2874+67.4377+48.663+67.4377+49.1411C67.4377+49.4314+67.6467+49.6534+67.9201+49.6534C68.1935+49.6534+68.4026+49.4314+68.4026+49.1411C68.4026+48.0996+67.5824+47.2629+66.5853+47.2629L65.0736+47.2629ZM73.0664+50.1656L71.9406+50.1656C71.9406+49.8753+71.7316+49.6534+71.4582+49.6534C71.1848+49.6534+70.9757+49.8753+70.9757+50.1656L60.6833+50.1656C60.6833+49.8753+60.4742+49.6534+60.2008+49.6534C59.9274+49.6534+59.7183+49.8753+59.7183+50.1656L58.5926+50.1656C57.885+50.1656+57.3061+50.7803+57.3061+51.5316L57.3061+61.7764C57.3061+62.5277+57.885+63.1424+58.5926+63.1424L73.0664+63.1424C73.774+63.1424+74.3529+62.5277+74.3529+61.7764L74.3529+51.5316C74.3529+50.7803+73.774+50.1656+73.0664+50.1656ZM60.6833+62.1179L59.7183+62.1179L59.7183+52.761C59.7183+52.4707+59.9274+52.2487+60.2008+52.2487C60.4742+52.2487+60.6833+52.4707+60.6833+52.761L60.6833+62.1179ZM64.8324+55.0148L62.7096+55.8344C62.4523+55.9369+62.1789+55.8003+62.0985+55.5271L61.5999+54.0757C61.5034+53.8025+61.6321+53.5123+61.8894+53.4269L64.0122+52.6073C64.2695+52.5048+64.5429+52.6414+64.6233+52.9146L65.1219+54.366C65.2023+54.6221+65.0736+54.9124+64.8324+55.0148ZM70.3485+58.0712L69.5766+60.325C69.4801+60.5982+69.2067+60.7348+68.9655+60.6324L65.3309+59.2152C65.0736+59.1127+64.945+58.8225+65.0415+58.5664L65.8134+56.3125C65.9099+56.0393+66.1833+55.9027+66.4245+56.0052L70.059+57.4053C70.3163+57.5077+70.445+57.798+70.3485+58.0712ZM71.9406+62.1179L70.9757+62.1179L70.9757+52.761C70.9757+52.4707+71.1848+52.2487+71.4582+52.2487C71.7316+52.2487+71.9406+52.4707+71.9406+52.761L71.9406+62.1179Z" opacity="1" fill="#000000"/>
</g>
</svg>
