<?xml version="1.0" encoding="UTF-8" standalone="no"?> <!-- Created with Vectornator for iOS (http://vectornator.io/) --><!DOCTYPE svg PUBLIC "-//W3C//DTD SVG 1.1//EN" "http://www.w3.org/Graphics/SVG/1.1/DTD/svg11.dtd">
<svg height="100%" style="fill-rule:nonzero;clip-rule:evenodd;stroke-linecap:round;stroke-linejoin:round;" xmlns:xlink="http://www.w3.org/1999/xlink" xmlns="http://www.w3.org/2000/svg" xml:space="preserve" width="100%" xmlns:vectornator="http://vectornator.io" version="1.1" viewBox="0 0 100 100">
<metadata>
<vectornator:setting key="DimensionsVisible" value="1"/>
<vectornator:setting key="PencilOnly" value="0"/>
<vectornator:setting key="SnapToPoints" value="0"/>
<vectornator:setting key="OutlineMode" value="0"/>
<vectornator:setting key="CMYKEnabledKey" value="0"/>
<vectornator:setting key="RulersVisible" value="1"/>
<vectornator:setting key="SnapToEdges" value="0"/>
<vectornator:setting key="GuidesVisible" value="1"/>
<vectornator:setting key="DisplayWhiteBackground" value="0"/>
<vectornator:setting key="doHistoryDisabled" value="0"/>
<vectornator:setting key="SnapToGuides" value="1"/>
<vectornator:setting key="TimeLapseWatermarkDisabled" value="0"/>
<vectornator:setting key="Units" value="Pixels"/>
<vectornator:setting key="DynamicGuides" value="0"/>
<vectornator:setting key="IsolateActiveLayer" value="0"/>
<vectornator:setting key="SnapToGrid" value="0"/>
</metadata>
<defs/>
<g id="Ebene 1" vectornator:layerName="Ebene 1">
<path d="M72.5376+60.9428C68.0464+60.9428+65.2597+62.3407+65.2597+66.0227C65.2597+69.7063+70.6594+71.4835+70.6594+74.5327C70.6594+78.1685+67.3936+78.1685+67.3936+81.6448C67.3936+82.9152+68.0737+85.4543+71.6121+85.4543C79.5054+85.4543+81.3172+73.9286+81.3172+69.7381C81.3155+64.6439+77.0288+60.9428+72.5376+60.9428Z" opacity="1" fill="#000000"/>
<path d="M67.7381+56.923C67.0887+55.2898+65.3787+54.3773+63.9191+54.8853C62.4596+55.3933+61.8035+57.1292+62.454+58.7622C63.1034+60.3955+64.8134+61.3079+66.273+60.7999C67.7325+60.2919+68.3886+58.556+67.7381+56.923Z" opacity="1" fill="#000000"/>
<path d="M73.1771+57.7742C73.225+56.7227+72.5741+55.8428+71.7235+55.8093C70.8729+55.7758+70.1451+56.6013+70.0983+57.6528C70.0504+58.7043+70.7013+59.5842+71.5519+59.6177C72.4025+59.6512+73.1303+58.8257+73.1771+57.7742Z" opacity="1" fill="#000000"/>
<path d="M77.3186+58.9468C77.6615+58.0073+77.3619+57.0612+76.6495+56.8343C75.9372+56.6073+75.0822+57.1855+74.7404+58.1254C74.3975+59.0648+74.6971+60.0109+75.4095+60.2379C76.1219+60.4649+76.9769+59.8866+77.3186+58.9468Z" opacity="1" fill="#000000"/>
<path d="M80.4775+59.0438C79.84+58.68+78.9141+59.0128+78.4101+59.7868C77.906+60.5609+78.0149+61.4828+78.6531+61.8455C79.2906+62.2093+80.2165+61.8766+80.7205+61.1026C81.2246+60.3285+81.1158+59.4066+80.4775+59.0438Z" opacity="1" fill="#000000"/>
<path d="M81.145+62.6765C80.5819+63.2913+80.5281+64.1122+81.0249+64.5096C81.5216+64.9069+82.3806+64.73+82.9428+64.1145C83.5059+63.4997+83.5597+62.6788+83.063+62.2814C82.5662+61.8841+81.7073+62.061+81.145+62.6765Z" opacity="1" fill="#000000"/>
<g opacity="1">
<path d="M50.4293+50.5297C45.9381+50.5297+41.6515+54.2324+41.6515+59.3266C41.6515+63.517+43.4633+75.0427+51.3565+75.0427C54.895+75.0427+55.575+72.502+55.575+71.2332C55.575+67.7569+52.3093+67.7569+52.3093+64.1211C52.3093+61.0735+57.709+59.2947+57.709+55.6111C57.7073+51.9259+54.9205+50.5297+50.4293+50.5297Z" opacity="1" fill="#000000"/>
<path d="M55.2288+46.5099C54.5781+48.1429+55.2341+49.8791+56.6938+50.3872C58.1535+50.8952+59.8637+49.9825+60.513+48.349C61.1637+46.716+60.5077+44.9798+59.048+44.4717C57.5883+43.9637+55.8781+44.8764+55.2288+46.5099Z" opacity="1" fill="#000000"/>
<path d="M52.8704+47.2397C52.8231+46.1886+52.0954+45.3638+51.2452+45.3973C50.395+45.4308+49.7442+46.31+49.7915+47.361C49.8389+48.412+50.5665+49.2369+51.4167+49.2034C52.2669+49.1699+52.9178+48.2907+52.8704+47.2397Z" opacity="1" fill="#000000"/>
<path d="M48.2243+47.7121C47.8823+46.7727+47.0276+46.195+46.3155+46.4218C45.6034+46.6487+45.3037+47.5943+45.6461+48.5335C45.9881+49.4729+46.8428+50.0507+47.5549+49.8238C48.267+49.5969+48.5668+48.6513+48.2243+47.7121Z" opacity="1" fill="#000000"/>
<path d="M44.5536+49.3722C44.0483+48.5994+43.1224+48.2681+42.4855+48.6323C41.8487+48.9964+41.742+49.9181+42.2473+50.691C42.7526+51.4638+43.6785+51.795+44.3154+51.4309C44.9523+51.0667+45.0589+50.145+44.5536+49.3722Z" opacity="1" fill="#000000"/>
<path d="M39.9078+51.8661C39.4101+52.2621+39.4616+53.0828+40.0228+53.6989C40.584+54.3149+41.4423+54.4928+41.9395+54.0961C42.4372+53.7001+42.3857+52.8794+41.8245+52.2634C41.2633+51.6474+40.405+51.4695+39.9078+51.8661Z" opacity="1" fill="#000000"/>
</g>
<path stroke="#000000" stroke-width="1.68942" d="M43.9239+30.1432L39.1737+25.4041C36.1621+22.4013+31.2773+22.4013+28.2656+25.4041L15.4551+38.1798L31.1163+53.7919L43.9239+41.0191C46.9384+38.0164+46.9384+33.146+43.9239+30.1432Z" fill="none" stroke-linecap="round" opacity="1" stroke-linejoin="round"/>
<path stroke="#000000" stroke-width="1.68942" d="M35.9425+40.2954L40.6986+45.0374M31.5524+44.6727L36.3084+49.4147M46.1862+34.1177L49.634+30.7502C50.9218+29.4633+50.9218+27.3564+49.6311+26.0695L48.8438+25.1765C47.6204+23.9567+51.232+22.7953+52.5286+21.5026C53.8251+20.2098+53.8251+18.1175+52.5286+16.8248C51.232+15.532+49.1335+15.532+47.8369+16.8248C46.5404+18.1175+45.0799+21.4238+44.1521+20.4987L43.2448+19.5912C41.9541+18.3043+39.841+18.3043+38.5532+19.5912L34.725+23.2184" fill="none" stroke-linecap="butt" opacity="1" stroke-linejoin="miter"/>
</g>
</svg>
