<?xml version="1.0" encoding="UTF-8" standalone="no"?> <!-- Created with Vectornator for iOS (http://vectornator.io/) --><!DOCTYPE svg PUBLIC "-//W3C//DTD SVG 1.1//EN" "http://www.w3.org/Graphics/SVG/1.1/DTD/svg11.dtd">
<svg height="100%" style="fill-rule:nonzero;clip-rule:evenodd;stroke-linecap:round;stroke-linejoin:round;" xmlns:xlink="http://www.w3.org/1999/xlink" xmlns="http://www.w3.org/2000/svg" xml:space="preserve" width="100%" xmlns:vectornator="http://vectornator.io" version="1.1" viewBox="0 0 100 100">
<metadata>
<vectornator:setting key="DimensionsVisible" value="1"/>
<vectornator:setting key="PencilOnly" value="0"/>
<vectornator:setting key="SnapToPoints" value="0"/>
<vectornator:setting key="OutlineMode" value="0"/>
<vectornator:setting key="CMYKEnabledKey" value="0"/>
<vectornator:setting key="RulersVisible" value="1"/>
<vectornator:setting key="SnapToEdges" value="0"/>
<vectornator:setting key="GuidesVisible" value="1"/>
<vectornator:setting key="DisplayWhiteBackground" value="0"/>
<vectornator:setting key="doHistoryDisabled" value="0"/>
<vectornator:setting key="SnapToGuides" value="1"/>
<vectornator:setting key="TimeLapseWatermarkDisabled" value="0"/>
<vectornator:setting key="Units" value="Pixels"/>
<vectornator:setting key="DynamicGuides" value="0"/>
<vectornator:setting key="IsolateActiveLayer" value="0"/>
<vectornator:setting key="SnapToGrid" value="0"/>
</metadata>
<defs/>
<g id="Ebene 1" vectornator:layerName="Ebene 1">
<path stroke="#000000" stroke-width="2.43137" d="M40.2959+65.6007C50.0302+65.6007+51.247+61.9503+56.1142+61.9503C59.1562+61.9503+60.9814+63.1671+60.9814+63.1671" fill="none" stroke-linecap="round" opacity="1" stroke-linejoin="round"/>
<path stroke="#000000" stroke-width="2.43137" d="M50.0302+23.0129C35.245+23.0129+23.2608+34.9971+23.2608+49.7824C23.2608+64.5677+35.245+76.5519+50.0302+76.5519C64.8155+76.5519+76.7997+64.5677+76.7997+49.7824C76.7997+34.9971+64.8155+23.0129+50.0302+23.0129L50.0302+23.0129ZM67.0653+38.8312C58.852+37.0061+54.8974+35.1809+54.8974+35.1809" fill="none" stroke-linecap="round" opacity="1" stroke-linejoin="round"/>
<path stroke="#000000" stroke-width="2.43137" d="M32.9951+37.6145C32.9951+37.6145+35.2985+34.1235+40.0927+32.3007C42.5287+31.376+45.163+31.5427+45.163+31.5427" fill="none" stroke-linecap="round" opacity="1" stroke-linejoin="round"/>
<path stroke="#000000" stroke-width="2.43137" d="M63.4149+46.132C63.4149+46.5019+63.3602+46.8597+63.258+47.1955C62.8017+48.6934+61.4109+49.7824+59.7646+49.7824C57.7483+49.7824+56.1142+48.1482+56.1142+46.132C56.1142+44.1158+57.7483+42.4816+59.7646+42.4816C61.3549+42.4816+62.708+43.4989+63.2081+44.9189C63.3419+45.2985+63.4149+45.7073+63.4149+46.132ZM43.9462+46.132C43.9462+46.6516+43.838+47.1456+43.642+47.5922C43.0787+48.882+41.7925+49.7824+40.2959+49.7824C38.2796+49.7824+36.6455+48.1482+36.6455+46.132C36.6455+44.1158+38.2796+42.4816+40.2959+42.4816C41.6696+42.4816+42.867+43.2409+43.49+44.3628C43.7808+44.8872+43.9462+45.4908+43.9462+46.132Z" fill="#000000" stroke-linecap="round" opacity="1" stroke-linejoin="round"/>
</g>
</svg>
