<?xml version="1.0" encoding="UTF-8" standalone="no"?> <!-- Created with Vectornator for iOS (http://vectornator.io/) --><!DOCTYPE svg PUBLIC "-//W3C//DTD SVG 1.1//EN" "http://www.w3.org/Graphics/SVG/1.1/DTD/svg11.dtd">
<svg height="100%" style="fill-rule:nonzero;clip-rule:evenodd;stroke-linecap:round;stroke-linejoin:round;" xmlns:xlink="http://www.w3.org/1999/xlink" xmlns="http://www.w3.org/2000/svg" xml:space="preserve" width="100%" xmlns:vectornator="http://vectornator.io" version="1.1" viewBox="0 0 100 100">
<metadata>
<vectornator:setting key="DimensionsVisible" value="1"/>
<vectornator:setting key="PencilOnly" value="0"/>
<vectornator:setting key="SnapToPoints" value="0"/>
<vectornator:setting key="OutlineMode" value="0"/>
<vectornator:setting key="CMYKEnabledKey" value="0"/>
<vectornator:setting key="RulersVisible" value="1"/>
<vectornator:setting key="SnapToEdges" value="0"/>
<vectornator:setting key="GuidesVisible" value="1"/>
<vectornator:setting key="DisplayWhiteBackground" value="0"/>
<vectornator:setting key="doHistoryDisabled" value="0"/>
<vectornator:setting key="SnapToGuides" value="1"/>
<vectornator:setting key="TimeLapseWatermarkDisabled" value="0"/>
<vectornator:setting key="Units" value="Pixels"/>
<vectornator:setting key="DynamicGuides" value="0"/>
<vectornator:setting key="IsolateActiveLayer" value="0"/>
<vectornator:setting key="SnapToGrid" value="0"/>
</metadata>
<defs/>
<g id="Ebene 1" vectornator:layerName="Ebene 1">
<path d="M13.3069+84.4142C12.6362+83.9895+11.8103+84.181+11.3855+84.7914C10.976+85.4665+11.1758+86.3076+11.7829+86.747C11.9407+86.8469+12.0985+86.9469+12.2563+87.0468C18.5682+91.044+26.3903+91.3805+32.8304+87.8737C37.4634+85.3661+40.9278+81.1841+42.5206+76.0367C42.7482+75.3013+42.3578+74.5045+41.6303+74.2636C40.9028+74.0227+40.1229+74.4083+39.8954+75.1437C38.506+79.5954+35.5453+83.217+31.5016+85.3832C25.8019+88.4795+18.8364+88.0808+13.3069+84.4142Z" opacity="1" fill="#000000"/>
<path d="M2.05538+67.9447C-0.99752+71.1781-2.09167+74.3328-1.20092+77.0955C-0.720459+78.554+0.301077+79.7506+1.7607+80.675C6.53407+83.6978+16.0234+83.7161+26.5849+80.3458C39.0217+76.4042+47.2714+67.3926+47.6152+67.0058C48.1189+66.4453+48.0703+65.5351+47.5114+65.0162C46.9525+64.4973+46.0564+64.5345+45.5527+65.0949C45.5045+65.1744+37.4628+73.933+25.6855+77.6875C12.8193+81.7969+2.73114+80.2452+1.40602+76.218C1.0111+74.9786+1.36322+73.4976+2.45365+71.8796C2.72608+73.5912+3.16502+75.2983+3.87346+77.0111C3.97437+77.2949+4.1629+77.5242+4.43905+77.6991C4.79409+77.9239+5.28492+78.0149+5.67484+77.8221C6.38243+77.5556+6.72168+76.7261+6.41023+75.9792C2.79785+67.2607+6.19408+57.429+14.242+53.0716C22.8552+48.4125+33.7373+51.8961+38.4979+60.7922C39.3267+62.3065+39.9168+63.9443+40.2769+65.6015C40.4613+66.3778+41.2108+66.8525+41.9097+66.6904C42.6721+66.5137+43.1297+65.7591+42.9607+65.0475C42.5392+63.1316+41.8635+61.2746+40.9097+59.5163C35.4145+49.2206+22.8319+45.2098+12.8891+50.6208C6.38547+54.1423+2.52993+60.77+2.23062+67.8358C2.19117+67.8109+2.10355+67.8653+2.05538+67.9447ZM44.7286+49.3477C44.3474+49.4361+44.0605+49.6391+43.8678+49.9568C43.6751+50.2745+43.6008+50.6672+43.7171+51.0157C43.8093+51.4038+44.0132+51.6978+44.3288+51.8977C44.6444+52.0976+45.0322+52.1783+45.374+52.0649C45.7552+51.9765+46.0421+51.7735+46.2348+51.4558C46.4274+51.1381+46.5018+50.7454+46.3855+50.397C46.2165+49.6853+45.4275+49.1857+44.7286+49.3477ZM52.7337+72.6107C52.3525+72.6991+52.0656+72.9021+51.8729+73.2198C51.6802+73.5375+51.6059+73.9302+51.7222+74.2786C51.8144+74.6668+52.0183+74.9608+52.3339+75.1607C52.6495+75.3606+53.0373+75.4413+53.3791+75.3279C53.6967+75.2543+54.0472+75.0365+54.2399+74.7188C54.4325+74.4011+54.5069+74.0084+54.3906+73.66C54.2216+72.9483+53.4326+72.4487+52.7337+72.6107Z" opacity="1" fill="#000000"/>
<path d="M20.0155+68.4904C18.3814+67.4556+16.2481+67.9502+15.2505+69.5952C14.2529+71.2401+14.7688+73.4125+16.4029+74.4474C18.0369+75.4822+20.1703+74.9875+21.1679+73.3425C22.1655+71.6976+21.6495+69.5252+20.0155+68.4904ZM25.5536+56.3874C24.6821+55.8355+23.5443+56.0993+23.0122+56.9766C22.4802+57.8539+22.7553+59.0126+23.6268+59.5644C24.4983+60.1163+25.6361+59.8525+26.1682+58.9752C26.7002+58.0979+26.4251+56.9393+25.5536+56.3874ZM35.6709+69.7751L35.6709+69.7751L35.6709+69.7751L35.7498+69.8251C36.4533+70.1057+37.2331+69.7201+37.5001+69.0097C37.7671+68.2994+37.3614+67.4378+36.6339+67.197C36.5944+67.172+36.4915+67.1617+36.452+67.1367L36.452+67.1367L36.452+67.1367C34.2453+66.4538+31.9606+67.7003+31.278+69.9063C31.1227+70.5225+31.3793+71.1797+31.8922+71.5045C32.0105+71.5794+32.0894+71.6294+32.2318+71.6646C32.9594+71.9055+33.7238+71.4552+33.9514+70.7199C34.1395+69.9596+34.9193+69.574+35.6709+69.7751Z" opacity="1" fill="#000000"/>
<path stroke="#000000" stroke-width="2" d="M56.2379+49.6696L54.696+52.6109C54.696+52.6109+54.3536+53.2969+56.5437+55.7801C58.7345+58.2618+59.3396+57.8728+59.3396+57.8728L61.9518+56.1194M69.7502+49.7583L69.7502+57.0812L65.4432+61.1494L64.1296+55.1951M61.8541+40.8081L55.3937+40.8081L51.8046+45.69L57.0576+47.179" fill="none" stroke-linecap="round" opacity="1" stroke-linejoin="round"/>
<path stroke="#000000" stroke-width="2" d="M83.3888+25.3486C83.3888+25.3486+78.232+25.4511+73.3185+28.2233C71.7414+29.1158+70.1622+30.3119+68.7481+31.914C64.6271+36.5852+56.309+48.5711+56.309+48.5711C56.309+48.5711+55.9407+49.9234+58.8264+53.1951C61.7106+56.4636+62.9036+56.0462+62.9036+56.0462C62.9036+56.0462+73.5948+46.4809+77.5967+41.9455C79.0044+40.3475+80.0588+38.5591+80.8448+36.7683C83.2797+31.2077+83.3888+25.3486+83.3888+25.3486Z" fill="none" stroke-linecap="round" opacity="1" stroke-linejoin="round"/>
<path stroke="#000000" stroke-width="2" d="M53.7282+55.4538C50.9419+57.6319+49.0951+56.2424+49.0951+63.3216C56.0541+63.3216+55.0323+61.0986+56.8294+58.6082" fill="none" stroke-linecap="butt" opacity="1" stroke-linejoin="miter"/>
<path stroke="#000000" stroke-width="2" d="M73.3393+33.4852C71.7535+33.4852+70.468+34.9423+70.468+36.7398C70.468+38.5373+71.7535+39.9944+73.3393+39.9944C74.9251+39.9944+76.2106+38.5373+76.2106+36.7398C76.2106+34.9423+74.9251+33.4852+73.3393+33.4852Z" fill="none" stroke-linecap="round" opacity="1" stroke-linejoin="round"/>
</g>
</svg>
