<?xml version="1.0" encoding="UTF-8" standalone="no"?> <!-- Created with Vectornator for iOS (http://vectornator.io/) --><!DOCTYPE svg PUBLIC "-//W3C//DTD SVG 1.1//EN" "http://www.w3.org/Graphics/SVG/1.1/DTD/svg11.dtd">
<svg height="100%" style="fill-rule:nonzero;clip-rule:evenodd;stroke-linecap:round;stroke-linejoin:round;" xmlns:xlink="http://www.w3.org/1999/xlink" xmlns="http://www.w3.org/2000/svg" xml:space="preserve" width="100%" xmlns:vectornator="http://vectornator.io" version="1.1" viewBox="0 0 100 100">
<metadata>
<vectornator:setting key="DimensionsVisible" value="1"/>
<vectornator:setting key="PencilOnly" value="0"/>
<vectornator:setting key="SnapToPoints" value="0"/>
<vectornator:setting key="OutlineMode" value="0"/>
<vectornator:setting key="CMYKEnabledKey" value="0"/>
<vectornator:setting key="RulersVisible" value="1"/>
<vectornator:setting key="SnapToEdges" value="0"/>
<vectornator:setting key="GuidesVisible" value="1"/>
<vectornator:setting key="DisplayWhiteBackground" value="0"/>
<vectornator:setting key="doHistoryDisabled" value="0"/>
<vectornator:setting key="SnapToGuides" value="1"/>
<vectornator:setting key="TimeLapseWatermarkDisabled" value="0"/>
<vectornator:setting key="Units" value="Pixels"/>
<vectornator:setting key="DynamicGuides" value="0"/>
<vectornator:setting key="IsolateActiveLayer" value="0"/>
<vectornator:setting key="SnapToGrid" value="0"/>
</metadata>
<defs/>
<g id="Ebene 1" vectornator:layerName="Ebene 1">
<path stroke="#000000" stroke-width="0.811466" d="M49.9336+83.1852C56.7836+83.1372+59.3246+72.0032+60.3596+67.0162C62.6766+55.8492+62.6436+43.6162+60.1726+32.4802" fill="none" stroke-linecap="butt" opacity="1" stroke-linejoin="miter"/>
<path stroke="#000000" stroke-width="0.962755" d="M42.1586+75.9052C43.3976+78.8872+45.2366+81.9212+48.0816+82.8772" fill="none" stroke-linecap="round" opacity="1" stroke-linejoin="round" stroke-dasharray="0,3.768300294876099"/>
<path stroke="#000000" stroke-width="0.811466" d="M49.9336+17.1852C43.0836+17.2332+40.5426+28.3672+39.5076+33.3542C37.2006+44.4692+37.2306+56.6322+39.6576+67.7232" fill="none" stroke-linecap="butt" opacity="1" stroke-linejoin="miter"/>
<path stroke="#000000" stroke-width="0.811466" d="M57.6386+24.4122C56.3786+21.5002+54.5066+18.4762+51.7586+17.5052" fill="none" stroke-linecap="butt" opacity="1" stroke-linejoin="miter"/>
<path stroke="#000000" stroke-width="0.811466" d="M20.8046+33.6772C17.2766+39.7142+25.2276+47.4792+29.1356+51.0312C37.6026+58.7262+48.3026+64.7662+59.2146+68.1732" fill="none" stroke-linecap="butt" opacity="1" stroke-linejoin="miter"/>
<path stroke="#000000" stroke-width="0.962755" d="M31.9156+30.2822C28.4526+29.8942+24.5556+30.0372+22.1166+32.1202" fill="none" stroke-linecap="round" opacity="1" stroke-linejoin="round" stroke-dasharray="0,4.094399929046631"/>
<path stroke="#000000" stroke-width="0.811466" d="M79.0626+66.6942C82.6216+60.5792+74.4976+52.7322+70.5406+49.1662C61.9776+41.4502+51.1646+35.3712+40.1346+32.0382" fill="none" stroke-linecap="butt" opacity="1" stroke-linejoin="miter"/>
<g opacity="1">
<path stroke="#000000" stroke-width="0.811466" d="" fill="none" stroke-linecap="butt" opacity="1" stroke-linejoin="miter"/>
<path stroke="#000000" stroke-width="0.811466" d="M67.9516+70.0882C71.4146+70.4762+75.3116+70.3332+77.7506+68.2512" fill="none" stroke-linecap="butt" opacity="1" stroke-linejoin="miter"/>
<path stroke="#000000" stroke-width="0.811466" d="" fill="none" stroke-linecap="butt" opacity="1" stroke-linejoin="miter"/>
</g>
<path stroke="#000000" stroke-width="0.811466" d="M20.8046+66.6942C24.4916+72.9612+39.7956+70.5922+56.4016+61.1822C62.4976+57.7282+67.6686+53.9482+71.5896+50.2372" fill="none" stroke-linecap="butt" opacity="1" stroke-linejoin="miter"/>
<g opacity="1">
<path stroke="#000000" stroke-width="0.8985" d="" fill="none" stroke-linecap="round" opacity="1" stroke-linejoin="round"/>
<path stroke="#000000" stroke-width="0.8985" d="M25.5666+52.9072C21.5406+57.3982+19.5276+61.6362+20.1326+64.8862" fill="none" stroke-linecap="round" opacity="1" stroke-linejoin="round" stroke-dasharray="0,3.875499963760376"/>
<path stroke="#000000" stroke-width="0.8985" d="" fill="none" stroke-linecap="round" opacity="1" stroke-linejoin="round"/>
</g>
<path stroke="#000000" stroke-width="0.811466" d="M79.3726+34.2872C79.2826+34.0782+79.1796+33.8752+79.0636+33.6772C75.3766+27.4082+60.0726+29.7772+43.4636+39.1882C37.3686+42.6422+32.1986+46.4222+28.2776+50.1332" fill="none" stroke-linecap="butt" opacity="1" stroke-linejoin="miter"/>
<g opacity="1">
<path stroke="#000000" stroke-width="0.811466" d="" fill="none" stroke-linecap="butt" opacity="1" stroke-linejoin="miter"/>
<path stroke="#000000" stroke-width="0.811466" d="M76.7136+44.5232C78.5596+42.0062+80.1616+38.9702+79.8356+36.0642" fill="none" stroke-linecap="butt" opacity="1" stroke-linejoin="miter"/>
<path stroke="#000000" stroke-width="0.811466" d="" fill="none" stroke-linecap="butt" opacity="1" stroke-linejoin="miter"/>
</g>
<path stroke="#000000" stroke-width="3.12172" d="M50.4133+46.5596L50.4133+59.2328M50.4133+41.8071L50.4133+44.9754" fill="none" stroke-linecap="butt" opacity="1" stroke-linejoin="miter"/>
<path stroke="#000000" stroke-width="3.12172" d="M52.5607+46.5554L52.5607+48.9587" fill="none" stroke-linecap="butt" opacity="1" stroke-linejoin="miter"/>
<path stroke="#000000" stroke-width="3.12172" d="M52.7503+56.8375L52.7503+59.2407" fill="none" stroke-linecap="butt" opacity="1" stroke-linejoin="miter"/>
<path stroke="#000000" stroke-width="3.12172" d="M48.179+56.8407L48.179+59.2439" fill="none" stroke-linecap="butt" opacity="1" stroke-linejoin="miter"/>
</g>
</svg>
