<?xml version="1.0" encoding="UTF-8" standalone="no"?> <!-- Created with Vectornator for iOS (http://vectornator.io/) --><!DOCTYPE svg PUBLIC "-//W3C//DTD SVG 1.1//EN" "http://www.w3.org/Graphics/SVG/1.1/DTD/svg11.dtd">
<svg height="100%" style="fill-rule:nonzero;clip-rule:evenodd;stroke-linecap:round;stroke-linejoin:round;" xmlns:xlink="http://www.w3.org/1999/xlink" xmlns="http://www.w3.org/2000/svg" xml:space="preserve" width="100%" xmlns:vectornator="http://vectornator.io" version="1.1" viewBox="0 0 100 100">
<metadata>
<vectornator:setting key="DimensionsVisible" value="1"/>
<vectornator:setting key="PencilOnly" value="0"/>
<vectornator:setting key="SnapToPoints" value="0"/>
<vectornator:setting key="OutlineMode" value="0"/>
<vectornator:setting key="CMYKEnabledKey" value="0"/>
<vectornator:setting key="RulersVisible" value="1"/>
<vectornator:setting key="SnapToEdges" value="0"/>
<vectornator:setting key="GuidesVisible" value="1"/>
<vectornator:setting key="DisplayWhiteBackground" value="0"/>
<vectornator:setting key="doHistoryDisabled" value="0"/>
<vectornator:setting key="SnapToGuides" value="1"/>
<vectornator:setting key="TimeLapseWatermarkDisabled" value="0"/>
<vectornator:setting key="Units" value="Pixels"/>
<vectornator:setting key="DynamicGuides" value="0"/>
<vectornator:setting key="IsolateActiveLayer" value="0"/>
<vectornator:setting key="SnapToGrid" value="0"/>
</metadata>
<defs/>
<g id="Ebene 1" vectornator:layerName="Ebene 1">
<path stroke="#000000" stroke-width="2" d="M41.7382+39.2829L41.7382+53.3389M49.447+44.5539C50.4105+48.2111+50.4105+51.5819+50.4105+51.5819M44.629+35.7689C45.4076+36.1036+46.0416+36.7291+46.5562+37.5259M31.3402+49.8249C31.1966+50.8976+31.1388+51.5819+31.1388+51.5819M36.9203+37.5259C35.9567+38.2287+34.9931+38.9315+34.0295+41.0399M48.4834+33.1334C52.7655+33.1334+56.1921+45.4324+56.1921+45.4324M34.0295+34.0119C28.5111+34.0119+25.3572+45.4324+25.3572+45.4324M47.5198+29.6194C55.7507+22.4447+61.9736+40.1614+61.9736+40.1614M24.3937+32.2549C21.951+35.414+20.5393+39.2829+20.5393+39.2829M36.9203+31.3764C35.2032+29.5044+33.5873+28.7488+32.1024+28.7409M42.7018+30.4979C48.9652+14.5022+58.1192+25.2269+58.1192+25.2269M38.8475+27.8624C32.7123+14.4653+24.3937+24.3484+24.3937+24.3484M41.7382+25.2269C41.7382+25.2269+43.7059+13.2574+48.4834+17.3573" fill="none" stroke-linecap="round" opacity="0.665385" stroke-linejoin="round"/>
<path d="M39.8111+34.0119C39.2789+34.0119+38.8475+34.4052+38.8475+34.8904C38.8475+35.3756+39.2789+35.7689+39.8111+35.7689C40.3432+35.7689+40.7747+35.3756+40.7747+34.8904C40.7747+34.4052+40.3432+34.0119+39.8111+34.0119ZM24.3937+48.0679C23.8615+48.0679+23.4301+48.4612+23.4301+48.9464C23.4301+49.4316+23.8615+49.8249+24.3937+49.8249C24.9258+49.8249+25.3572+49.4316+25.3572+48.9464C25.3572+48.4612+24.9258+48.0679+24.3937+48.0679ZM21.5029+26.1054C20.9707+26.1054+20.5393+26.4988+20.5393+26.9839C20.5393+27.4691+20.9707+27.8624+21.5029+27.8624C22.0351+27.8624+22.4665+27.4691+22.4665+26.9839C22.4665+26.4988+22.0351+26.1054+21.5029+26.1054ZM60.0464+26.9839C59.5142+26.9839+59.0828+27.3773+59.0828+27.8624C59.0828+28.3476+59.5142+28.7409+60.0464+28.7409C60.5786+28.7409+61.01+28.3476+61.01+27.8624C61.01+27.3773+60.5786+26.9839+60.0464+26.9839ZM38.3657+15.5634L39.0084+17.1527L40.7747+17.2396L39.3996+18.3184L39.8515+19.9559L38.3657+19.0405L36.8798+19.9559L37.3318+18.3184L35.9567+17.2396L37.723+17.1527L38.3657+15.5634ZM27.7662+27.8624L28.4089+29.4516L30.1752+29.5386L28.8001+30.6174L29.2521+32.2549L27.7662+31.3395L26.2804+32.2549L26.7323+30.6174L25.3572+29.5386L27.1235+29.4516L27.7662+27.8624ZM48.9652+38.4044L49.6079+39.9936L51.3741+40.0806L49.9991+41.1594L50.451+42.7969L48.9652+41.8815L47.4793+42.7969L47.9312+41.1594L46.5562+40.0806L48.3224+39.9936L48.9652+38.4044ZM57.6375+47.1894L58.2802+48.7786L60.0464+48.8656L58.6714+49.9444L59.1233+51.5819L57.6375+50.6665L56.1516+51.5819L56.6035+49.9444L55.2285+48.8656L56.9947+48.7786L57.6375+47.1894ZM33.066+42.7969L33.8368+44.7041L35.9567+44.8078L34.3071+46.1027L34.8486+48.0679L33.066+46.9698L31.2833+48.0679L31.8249+46.1027L30.1752+44.8078L32.2951+44.7041L33.066+42.7969Z" opacity="0.665385" fill="#000000"/>
<path stroke="#000000" stroke-width="0.8985" d="M47.1899+72.5386L53.223+67.384" fill="none" stroke-linecap="round" opacity="1" stroke-linejoin="round"/>
<path stroke="#000000" stroke-width="0.8985" d="M54.3721+67.6295C54.0044+67.6295+53.6372+67.5097+53.3563+67.2701C52.7949+66.791+52.7949+66.0139+53.3563+65.5348L67.146+53.753C67.7074+53.2734+68.6164+53.2734+69.1772+53.753C69.7385+54.2321+69.7385+55.0092+69.1772+55.4884L55.3874+67.2701C55.107+67.5097+54.7398+67.6295+54.3721+67.6295Z" fill="none" stroke-linecap="butt" opacity="1" stroke-linejoin="miter"/>
<path stroke="#000000" stroke-width="0.8985" d="M80.1326+53.754L76.8092+52.7314C76.4128+52.6097+76.2973+52.1821+76.5915+51.9263L78.7226+50.0732C79.1529+49.6986+78.6881+49.0899+78.1078+49.2676L73.645+50.6372C73.1814+50.7796+72.732+50.3996+72.9004+50.0069L74.6373+45.9559C74.8407+45.4817+74.1696+45.087+73.7151+45.413L71.3491+47.111C71.0463+47.3285+70.5808+47.2303+70.4332+46.9186L69.2306+44.3752C69.0088+43.9054+68.1935+43.9913+68.1148+44.493L67.4178+48.9151C67.3512+49.3378+66.7243+49.4934+66.3985+49.1684L62.866+45.6462C62.4794+45.2603+61.7387+45.5607+61.8519+46.0575L62.4903+48.8562C62.5684+49.1979+62.2133+49.4983+61.8094+49.4325L58.5016+48.8925C57.9144+48.7968+57.5593+49.4232+58.0155+49.7506L62.1783+52.7398C62.5627+53.0157+62.3782+53.5458+61.8789+53.6023L56.887+54.1654C56.2797+54.2341+56.1947+54.9484+56.7738+55.1177L59.7346+55.9842C60.1236+56.0981+60.2535+56.508+59.984+56.7711L57.4266+59.2674C57.0651+59.6203+57.434+60.1608+57.9758+60.0725L60.1684+59.7146L67.1455+53.7535C67.7068+53.2739+68.6158+53.2739+69.1766+53.7535C69.7379+54.2326+69.7379+55.0097+69.1766+55.4889L62.1564+61.4868L61.783+63.1239C61.675+63.5967+62.3512+63.9055+62.7592+63.5697L65.4378+61.364C65.7401+61.1151+66.2451+61.2128+66.3893+61.5486L67.5977+64.3605C67.8057+64.8441+68.6399+64.7675+68.7198+64.2574L69.3966+59.9635C69.4633+59.5408+70.0902+59.3852+70.4159+59.7102L73.9157+63.2C74.3047+63.5878+75.0487+63.282+74.9286+62.7833L74.3771+60.4996C74.2989+60.176+74.6121+59.881+75.0005+59.9114L78.6548+60.1981C79.2207+60.2423+79.5178+59.6444+79.0845+59.3332L74.6368+56.1398C74.2529+55.8639+74.4368+55.3337+74.9361+55.2773L80.0108+54.7049C80.6129+54.6357+80.7037+53.9297+80.1326+53.754Z" fill="none" stroke-linecap="butt" opacity="1" stroke-linejoin="miter"/>
<path stroke="#000000" stroke-width="0.8985" d="M72.1839+71.0658L71.2008+69.5298C70.9807+69.1862+70.6498+68.9034+70.2476+68.7154L68.4492+67.8749L70.247+67.035C70.6492+66.847+70.9802+66.5642+71.2002+66.2206L72.1839+64.684L73.167+66.2201C73.3871+66.5637+73.718+66.8465+74.1202+67.0345L75.9186+67.8749L74.1208+68.7149C73.7186+68.9029+73.3876+69.1857+73.1676+69.5293L72.1839+71.0658ZM64.1399+72.5386L63.459+71.4753C63.3067+71.2372+63.0775+71.0413+62.7988+70.9112L61.5543+70.3295L62.7988+69.7478C63.0775+69.6177+63.3067+69.4218+63.459+69.1837L64.1399+68.1204L64.8207+69.1837C64.973+69.4218+65.2023+69.6177+65.4809+69.7478L66.7255+70.3295L65.4809+70.9112C65.2023+71.0413+64.973+71.2372+64.8207+71.4753L64.1399+72.5386ZM53.7975+54.375L53.1167+53.3117C52.9644+53.0736+52.7352+52.8777+52.4565+52.7476L51.212+52.1659L52.4565+51.5842C52.7352+51.4541+52.9644+51.2582+53.1167+51.0201L53.7975+49.9568L54.4784+51.0201C54.6307+51.2582+54.8599+51.4541+55.1386+51.5842L56.3831+52.1659L55.1386+52.7476C54.8599+52.8777+54.6307+53.0736+54.4784+53.3117L53.7975+54.375ZM50.9247+49.4659L49.9416+47.9299C49.7215+47.5862+49.3906+47.3035+48.9884+47.1154L47.1899+46.275L48.9878+45.4351C49.39+45.2471+49.7209+44.9643+49.941+44.6207L50.9247+43.0841L51.9078+44.6202C52.1278+44.9638+52.4588+45.2466+52.861+45.4346L54.6594+46.275L52.8616+47.115C52.4594+47.303+52.1284+47.5857+51.9083+47.9294L50.9247+49.4659Z" fill="none" stroke-linecap="round" opacity="1" stroke-linejoin="round"/>
<path stroke="#000000" stroke-width="0.663667" d="M25.435+80.3697C27.7136+77.6806+25.3986+77.91+27.2934+75.3644" fill="none" stroke-linecap="round" opacity="1" stroke-linejoin="round"/>
<path stroke="#000000" stroke-width="0.663667" d="M27.5146+60.5464L35.0149+55.2473L37.2899+63.6513L27.5146+60.5464Z" fill="none" stroke-linecap="butt" opacity="1" stroke-linejoin="miter"/>
<path d="M35.4007+63.3713L30.8002+75.4348C30.7645+75.5285+30.704+75.5909+30.6482+75.6314C30.6173+75.6539+30.5877+75.6698+30.5644+75.6803C30.5002+75.7095+30.3697+75.751+30.2139+75.7015L24.8638+74.0022C24.708+73.9527+24.6338+73.8462+24.6034+73.7869C24.5729+73.7277+24.5302+73.6069+24.5857+73.4613L29.1861+61.3974L28.3222+61.123L23.7219+73.1869C23.4669+73.8555+23.8405+74.5823+24.5559+74.8095L29.906+76.5088C30.2641+76.6225+30.6399+76.5899+30.9577+76.4453C31.2755+76.3008+31.5365+76.0438+31.6637+75.7094L36.2646+63.6457L35.4007+63.3713Z" opacity="1" fill="#000000"/>
<path stroke="#000000" stroke-width="0.663667" d="M34.2268+62.6777L27.9127+63.4603M35.144+65.2838L26.9054+66.3051M25.7205+69.1716L34.0036+68.1452M24.9713+71.8475L32.8487+70.8711M31.8033+73.7204L25.2293+74.5353" fill="none" stroke-linecap="butt" opacity="1" stroke-linejoin="miter"/>
</g>
</svg>
